<svg xmlns="http://www.w3.org/2000/svg" viewBox="0 0 32 32" role="img" aria-labelledby="title desc">
  <title id="title">Praxis Studio compact flow mark</title>
  <desc id="desc">A compact governed memory-flow logo mark optimized for 24 to 32 pixel navigation use.</desc>
  <rect x="2" y="2" width="28" height="28" rx="8" fill="#0C1116" stroke="#263241" stroke-width="1.5" />
  <g fill="none" stroke-linecap="round" stroke-linejoin="round">
    <path d="M7.4 20.3C8.7 13.1 12.8 8.5 17.5 8C22.1 7.5 25.2 11.1 24.2 15.5C23.2 20 18.7 22.7 13.4 21.6C10.9 21.1 8.7 20.6 7.4 20.3" stroke="#0C1116" stroke-width="5" />
    <path d="M7.4 20.3C8.7 13.1 12.8 8.5 17.5 8C22.1 7.5 25.2 11.1 24.2 15.5C23.2 20 18.7 22.7 13.4 21.6C10.9 21.1 8.7 20.6 7.4 20.3" stroke="#E7A23C" stroke-width="3.2" />
  </g>
  <path d="M12.3 12H18.4L21.2 15.3L18.4 18.6H12.3L9.5 15.3Z" fill="#111820" stroke="#263241" stroke-width="1.2" stroke-linejoin="round" />
  <path d="M12.7 15.3H18.2" stroke="#6EE7D8" stroke-width="1.5" stroke-linecap="round" />
  <circle cx="17.5" cy="8" r="2.4" fill="#6EE7D8" stroke="#0C1116" stroke-width="1.2" />
  <circle cx="24.2" cy="15.5" r="2.4" fill="#6EE7D8" stroke="#0C1116" stroke-width="1.2" />
  <circle cx="7.4" cy="20.3" r="2.4" fill="#6EE7D8" stroke="#0C1116" stroke-width="1.2" />
</svg>
