<svg xmlns="http://www.w3.org/2000/svg" viewBox="0 0 720 180" role="img" aria-labelledby="title desc">
  <title id="title">Praxis Studio memory document graph logo lockup</title>
  <desc id="desc">Praxis Studio wordmark with governed graph nodes feeding a project memory document.</desc>
  <g transform="translate(18 18) scale(0.5625)">
    <g fill="none" stroke-linecap="round" stroke-linejoin="round">
      <path d="M62 84H98M62 128H98M62 172H98" stroke="#0C1116" stroke-width="32" />
      <path d="M62 84H98M62 128H98M62 172H98" stroke="#E7A23C" stroke-width="16" />
    </g>
    <path
      d="M98 56H158L194 92V200H98Z"
      fill="#111820"
      stroke="#E7A23C"
      stroke-width="16"
      stroke-linejoin="round"
    />
    <path d="M158 56V92H194" fill="none" stroke="#E7A23C" stroke-width="16" stroke-linejoin="round" />
    <g fill="none" stroke-linecap="round">
      <path d="M120 118H164" stroke="#EDF2F7" stroke-width="7" />
      <path d="M120 140H170" stroke="#6EE7D8" stroke-width="7" />
      <path d="M120 162H150" stroke="#8EA0B5" stroke-width="7" />
    </g>
    <g>
      <circle cx="62" cy="84" r="23" fill="#0C1116" />
      <circle cx="62" cy="84" r="13" fill="#6EE7D8" />
      <circle cx="62" cy="128" r="23" fill="#0C1116" />
      <circle cx="62" cy="128" r="13" fill="#6EE7D8" />
      <circle cx="62" cy="172" r="23" fill="#0C1116" />
      <circle cx="62" cy="172" r="13" fill="#6EE7D8" />
    </g>
  </g>
  <text
    x="170"
    y="78"
    fill="#EDF2F7"
    font-family="Inter, ui-sans-serif, system-ui, -apple-system, BlinkMacSystemFont, Segoe UI, sans-serif"
    font-size="52"
    font-weight="780"
    letter-spacing="0"
  >Praxis</text>
  <text
    x="170"
    y="126"
    fill="#8EA0B5"
    font-family="Inter, ui-sans-serif, system-ui, -apple-system, BlinkMacSystemFont, Segoe UI, sans-serif"
    font-size="38"
    font-weight="560"
    letter-spacing="0"
  >Studio</text>
  <path d="M386 113h118" stroke="#263241" stroke-width="2" stroke-linecap="round" />
  <circle cx="524" cy="113" r="6" fill="#6EE7D8" />
  <circle cx="548" cy="113" r="6" fill="#E7A23C" />
</svg>
