<svg xmlns="http://www.w3.org/2000/svg" viewBox="0 0 32 32" role="img" aria-labelledby="title desc">
  <title id="title">Praxis Studio compact control grid mark</title>
  <desc id="desc">A compact ordered project memory control grid mark optimized for 24 to 32 pixel navigation use.</desc>
  <rect x="2" y="2" width="28" height="28" rx="8" fill="#0C1116" stroke="#263241" stroke-width="1.5" />
  <g fill="none" stroke-linecap="round" stroke-linejoin="round">
    <path d="M8.2 9.4V22.6M8.2 9.4H12.4M8.2 16H12.4M8.2 22.6H12.4M20.2 9.4H23.8V22.6H20.2" stroke="#0C1116" stroke-width="4.4" />
    <path d="M8.2 9.4V22.6M8.2 9.4H12.4M8.2 16H12.4M8.2 22.6H12.4M20.2 9.4H23.8V22.6H20.2" stroke="#E7A23C" stroke-width="2.4" />
  </g>
  <rect x="12" y="8.6" width="8.4" height="14.8" rx="2" fill="#111820" stroke="#263241" stroke-width="1.4" />
  <path d="M14.2 13H18.3" stroke="#EDF2F7" stroke-width="1.4" stroke-linecap="round" />
  <path d="M14.2 16H18.3" stroke="#6EE7D8" stroke-width="1.4" stroke-linecap="round" />
  <path d="M14.2 19H17.2" stroke="#8EA0B5" stroke-width="1.4" stroke-linecap="round" />
  <circle cx="8.2" cy="9.4" r="2.2" fill="#6EE7D8" stroke="#0C1116" stroke-width="1.1" />
  <circle cx="8.2" cy="16" r="2.2" fill="#6EE7D8" stroke="#0C1116" stroke-width="1.1" />
  <circle cx="8.2" cy="22.6" r="2.2" fill="#6EE7D8" stroke="#0C1116" stroke-width="1.1" />
</svg>
