<svg xmlns="http://www.w3.org/2000/svg" viewBox="0 0 720 180" role="img" aria-labelledby="title desc">
  <title id="title">Praxis Studio memory cell logo lockup</title>
  <desc id="desc">Praxis Studio wordmark with a minimal amber control cell and cyan governance nodes.</desc>
  <g transform="translate(18 18) scale(0.5625)">
    <g fill="none" stroke-linecap="round" stroke-linejoin="round">
      <path d="M88 58H174C190 58 198 66 198 82V174C198 190 190 198 174 198H88" stroke="#0C1116" stroke-width="42" />
      <path d="M88 58H174C190 58 198 66 198 82V174C198 190 190 198 174 198H88" stroke="#E7A23C" stroke-width="26" />
    </g>
    <g>
      <circle cx="68" cy="76" r="25" fill="#0C1116" />
      <circle cx="68" cy="76" r="14" fill="#6EE7D8" />
      <circle cx="68" cy="128" r="25" fill="#0C1116" />
      <circle cx="68" cy="128" r="14" fill="#6EE7D8" />
      <circle cx="68" cy="180" r="25" fill="#0C1116" />
      <circle cx="68" cy="180" r="14" fill="#6EE7D8" />
    </g>
  </g>
  <text
    x="170"
    y="78"
    fill="#EDF2F7"
    font-family="Inter, ui-sans-serif, system-ui, -apple-system, BlinkMacSystemFont, Segoe UI, sans-serif"
    font-size="52"
    font-weight="780"
    letter-spacing="0"
  >Praxis</text>
  <text
    x="170"
    y="126"
    fill="#8EA0B5"
    font-family="Inter, ui-sans-serif, system-ui, -apple-system, BlinkMacSystemFont, Segoe UI, sans-serif"
    font-size="38"
    font-weight="560"
    letter-spacing="0"
  >Studio</text>
  <path d="M386 113h118" stroke="#263241" stroke-width="2" stroke-linecap="round" />
  <circle cx="524" cy="113" r="6" fill="#6EE7D8" />
  <circle cx="548" cy="113" r="6" fill="#E7A23C" />
</svg>
