<svg xmlns="http://www.w3.org/2000/svg" viewBox="0 0 720 180" role="img" aria-labelledby="title desc">
  <title id="title">Praxis Studio flow logo lockup</title>
  <desc id="desc">Praxis Studio wordmark with a governed graph and project memory flow mark.</desc>
  <g transform="translate(14 18) scale(0.5625)">
    <g fill="none" stroke-linecap="round" stroke-linejoin="round">
      <path
        d="M58 166C69 107 101 70 140 63C180 56 207 88 199 126C191 164 153 187 106 178C85 174 69 170 58 166"
        stroke="#0C1116"
        stroke-width="44"
      />
      <path
        d="M58 166C69 107 101 70 140 63C180 56 207 88 199 126C191 164 153 187 106 178C85 174 69 170 58 166"
        stroke="#E7A23C"
        stroke-width="28"
      />
    </g>
    <path
      d="M101 88H151L182 121L151 154H101L70 121Z"
      fill="#111820"
      stroke="#263241"
      stroke-width="8"
      stroke-linejoin="round"
    />
    <g fill="none" stroke-linecap="round">
      <path d="M95 111H145" stroke="#EDF2F7" stroke-width="7" />
      <path d="M102 124H160" stroke="#6EE7D8" stroke-width="7" />
      <path d="M95 137H137" stroke="#8EA0B5" stroke-width="7" />
    </g>
    <g>
      <circle cx="140" cy="63" r="24" fill="#0C1116" />
      <circle cx="140" cy="63" r="13" fill="#6EE7D8" />
      <circle cx="199" cy="126" r="24" fill="#0C1116" />
      <circle cx="199" cy="126" r="13" fill="#6EE7D8" />
      <circle cx="58" cy="166" r="24" fill="#0C1116" />
      <circle cx="58" cy="166" r="13" fill="#6EE7D8" />
      <circle cx="106" cy="178" r="15" fill="#0C1116" />
      <circle cx="106" cy="178" r="8" fill="#E7A23C" />
    </g>
  </g>
  <text
    x="170"
    y="78"
    fill="#EDF2F7"
    font-family="Inter, ui-sans-serif, system-ui, -apple-system, BlinkMacSystemFont, Segoe UI, sans-serif"
    font-size="52"
    font-weight="780"
    letter-spacing="0"
  >Praxis</text>
  <text
    x="170"
    y="126"
    fill="#8EA0B5"
    font-family="Inter, ui-sans-serif, system-ui, -apple-system, BlinkMacSystemFont, Segoe UI, sans-serif"
    font-size="38"
    font-weight="560"
    letter-spacing="0"
  >Studio</text>
  <path d="M386 113h118" stroke="#263241" stroke-width="2" stroke-linecap="round" />
  <circle cx="524" cy="113" r="6" fill="#6EE7D8" />
  <circle cx="548" cy="113" r="6" fill="#E7A23C" />
</svg>
