<svg xmlns="http://www.w3.org/2000/svg" viewBox="0 0 512 512" role="img" aria-labelledby="title desc">
  <title id="title">Praxis Studio memory cell app icon</title>
  <desc id="desc">A dark app icon containing the Praxis Studio minimal memory cell mark.</desc>
  <rect width="512" height="512" rx="96" fill="#0C1116" />
  <rect x="52" y="52" width="408" height="408" rx="72" fill="#111820" stroke="#263241" stroke-width="10" />
  <g transform="translate(96 96) scale(1.25)">
    <g fill="none" stroke-linecap="round" stroke-linejoin="round">
      <path d="M88 58H174C190 58 198 66 198 82V174C198 190 190 198 174 198H88" stroke="#0C1116" stroke-width="42" />
      <path d="M88 58H174C190 58 198 66 198 82V174C198 190 190 198 174 198H88" stroke="#E7A23C" stroke-width="26" />
    </g>
    <g>
      <circle cx="68" cy="76" r="25" fill="#0C1116" />
      <circle cx="68" cy="76" r="14" fill="#6EE7D8" />
      <circle cx="68" cy="128" r="25" fill="#0C1116" />
      <circle cx="68" cy="128" r="14" fill="#6EE7D8" />
      <circle cx="68" cy="180" r="25" fill="#0C1116" />
      <circle cx="68" cy="180" r="14" fill="#6EE7D8" />
    </g>
  </g>
</svg>
